<?xml version="1.0" encoding="utf-8"?>
<!-- Svg Vector Icons : http://www.onlinewebfonts.com/icon -->
<!DOCTYPE svg PUBLIC "-//W3C//DTD SVG 1.1//EN" "http://www.w3.org/Graphics/SVG/1.1/DTD/svg11.dtd">
<svg version="1.1" xmlns="http://www.w3.org/2000/svg" xmlns:xlink="http://www.w3.org/1999/xlink" x="0px" y="0px" viewBox="0 0 1000 1000" enable-background="new 0 0 1000 1000" xml:space="preserve">
<metadata> Svg Vector Icons : http://www.onlinewebfonts.com/icon </metadata>
<g><g transform="translate(0.000000,511.000000) scale(0.100000,-0.100000)"><path d="M1611.6,4781.8c-328.1-81-616.7-251.3-870-512.9C318,3830.8,100,3274.3,100,2632.7c0-672.8,242.9-1260.4,706-1698.5c313.5-299,658.2-454.7,1086-492.1c128.7-10.4,662.4-20.8,1187.7-20.8h955.1l41.5-118.4c51.9-147.4,128.7-211.8,207.6-176.5c87.2,39.5,108,112.1,60.2,216c-31.1,68.5-39.4,135-39.4,296.9c0,186.9,6.2,218,58.1,317.7c350.9,670.7,1343.4,461,1380.8-290.7c6.2-112.1-2.1-191-24.9-257.5c-43.6-126.7-41.5-180.6,4.2-222.2c41.5-37.4,122.5-45.7,166.1-16.6c14.5,8.3,49.8,70.6,76.8,139.1l49.8,122.5l1148.3,10.4l1148.2,10.4l201.4,70.6c701.8,240.9,1218.9,888.7,1360,1694.4c47.8,284.5,29.1,764.1-43.6,1038.2c-207.6,772.4-768.3,1362.1-1451.4,1526.2c-166.1,39.4-255.4,41.5-3388.7,39.4C1906.5,4821.2,1765.3,4819.1,1611.6,4781.8z M8256.1,4273c419.4-99.7,793.2-456.8,953.1-913.6c51.9-151.6,58.1-193.1,56.1-446.4c0-249.2-6.3-299-56.1-446.4c-149.5-448.5-479.7-776.6-938.5-938.5l-166.1-58.1l-934.4-6.2c-1034-8.3-1007.1-4.2-1007.1-139.1c0-126.7-16.6-124.6,953.1-124.6c643.7,0,924,8.3,1027.8,27c396.6,74.7,780.7,309.4,1048.6,637.5l68.5,83.1l-35.3-83.1c-124.6-311.5-396.6-610.5-697.7-768.3c-251.3-130.8-282.4-135-1484.6-135H5961.7l-35.3,89.3c-49.8,132.9-201.4,309.4-344.7,404.9c-338.5,226.3-772.4,228.4-1117.1,6.2c-137-89.3-294.9-274.1-353-411.1l-35.3-89.3H2975.8c-1223,0-1252.1,4.2-1503.3,135c-294.9,155.7-533.6,419.4-693.5,764.1c-31.1,70.6-14.5,58.1,132.9-97.6c199.3-209.7,411.1-359.2,635.4-444.3c294.8-112.1,371.7-118.4,1358-118.4c863.8,0,909.5,2.1,951,39.4c49.8,45.7,56.1,112.1,14.5,170.3c-29.1,37.4-70.6,39.5-1002.9,49.8l-971.8,10.4L1730,1528c-477.6,168.2-789,483.8-948.9,961.4c-41.5,122.5-47.8,184.8-47.8,423.6c0,259.6,4.2,292.8,64.4,458.9c157.8,440.2,533.6,801.5,934.4,899.1C1918.9,4316.6,8065.1,4318.7,8256.1,4273z"/><path d="M4890.3,992.3c-105.9-37.4-176.5-103.8-228.4-216c-37.4-87.2-39.5-122.5-27-591.8c24.9-969.7,24.9-1264.5,0-1272.8c-14.5-4.2-29.1,31.1-37.4,87.2c-27,201.4-151.6,344.7-321.8,373.8c-230.5,39.4-456.8-153.7-458.9-388.3c0-105.9-58.1-105.9-114.2-4.2c-126.7,236.7-500.4,251.3-649.9,22.9c-29.1-43.6-58.1-118.4-64.4-164c-18.7-130.8-64.4-143.3-168.2-49.8c-101.7,91.4-159.9,116.3-280.3,116.3c-114.2,0-191-29.1-265.8-99.7c-116.3-110.1-118.4-122.5-118.4-714.3c2.1-784.9,27-1148.3,91.4-1372.5c201.4-683.1,743.4-1166.9,1461.8-1304c189-35.3,618.8-12.5,814,43.6c313.5,89.3,606.3,267.9,836.8,506.7c126.7,132.9,166.1,188.9,481.7,708c112.1,182.7,382.1,616.7,600.1,965.5l396.6,633.3v124.6c0,226.3-157.8,384.1-386.2,384.1c-182.7,0-234.6-45.7-554.4-490c-228.4-315.6-294.9-394.5-338.4-398.7c-29.1-4.2-64.4,6.2-74.8,20.8c-14.5,18.7-31.2,492.1-47.8,1387c-14.5,747.5-33.2,1397.4-45.7,1443.1c-37.4,147.4-220.1,282.4-380,280.3C4987.9,1021.4,4933.9,1008.9,4890.3,992.3z"/></g></g>
</svg>